<svg width="125" height="42" viewBox="0 0 125 42" fill="none" xmlns="http://www.w3.org/2000/svg">
<path d="M10.7788 20.8916C10.7788 21.2847 10.9248 21.6216 11.2393 21.9136L19.9766 30.4712C20.2236 30.7183 20.5381 30.853 20.9087 30.853C21.6499 30.853 22.2451 30.269 22.2451 29.5166C22.2451 29.146 22.0879 28.8203 21.8408 28.562L13.9683 20.8916L21.8408 13.2212C22.0879 12.9629 22.2451 12.626 22.2451 12.2666C22.2451 11.5142 21.6499 10.9302 20.9087 10.9302C20.5381 10.9302 20.2236 11.0649 19.9766 11.312L11.2393 19.8584C10.9248 20.1616 10.7788 20.4985 10.7788 20.8916Z" fill="black"/>
</svg>
