<svg width="24" height="24" viewBox="0 0 24 24" fill="none" xmlns="http://www.w3.org/2000/svg">
<path d="M12.0134 2.25C12.7474 2.258 13.4784 2.343 14.1944 2.503C14.3469 2.53705 14.485 2.6179 14.5894 2.73426C14.6937 2.85062 14.7591 2.99667 14.7764 3.152L14.9464 4.679C14.9703 4.89441 15.0445 5.10119 15.163 5.28268C15.2815 5.46416 15.441 5.61528 15.6286 5.72386C15.8161 5.83244 16.0266 5.89545 16.243 5.9078C16.4594 5.92016 16.6757 5.88152 16.8744 5.795L18.2744 5.18C18.4166 5.11735 18.5748 5.10044 18.7271 5.13161C18.8794 5.16278 19.0182 5.24049 19.1244 5.354C20.1363 6.43511 20.8899 7.73162 21.3284 9.146C21.3744 9.29464 21.373 9.45389 21.3244 9.60171C21.2759 9.74953 21.1825 9.87858 21.0574 9.971L19.8154 10.887C19.6406 11.0152 19.4985 11.1829 19.4005 11.3763C19.3026 11.5697 19.2516 11.7835 19.2517 12.0003C19.2518 12.217 19.303 12.4308 19.4011 12.6241C19.4992 12.8174 19.6415 12.9849 19.8164 13.113L21.0594 14.028C21.1847 14.1205 21.2782 14.2497 21.3268 14.3977C21.3753 14.5458 21.3766 14.7052 21.3304 14.854C20.892 16.2682 20.1388 17.5647 19.1274 18.646C19.0214 18.7595 18.8828 18.8372 18.7307 18.8686C18.5786 18.8999 18.4206 18.8833 18.2784 18.821L16.8724 18.204C16.6739 18.1168 16.4577 18.0776 16.2413 18.0895C16.0248 18.1015 15.8143 18.1642 15.6266 18.2727C15.4389 18.3812 15.2795 18.5324 15.1611 18.714C15.0428 18.8956 14.9688 19.1025 14.9454 19.318L14.7764 20.844C14.7593 20.9976 14.6952 21.1423 14.5928 21.2581C14.4905 21.3739 14.3548 21.4553 14.2044 21.491C12.7562 21.8355 11.2475 21.8355 9.79938 21.491C9.64898 21.4553 9.5133 21.3739 9.41091 21.2581C9.30852 21.1423 9.24442 20.9976 9.22738 20.844L9.05738 19.32C9.03278 19.1054 8.95824 18.8996 8.83973 18.7191C8.72123 18.5385 8.56206 18.3883 8.37499 18.2803C8.18792 18.1724 7.97816 18.1098 7.76254 18.0976C7.54692 18.0854 7.33144 18.1239 7.13338 18.21L5.72638 18.826C5.58416 18.8883 5.42611 18.9049 5.27403 18.8736C5.12196 18.8422 4.98337 18.7645 4.87738 18.651C3.86545 17.5685 3.11222 16.2706 2.67438 14.855C2.62817 14.7062 2.62943 14.5468 2.678 14.3987C2.72656 14.2507 2.82002 14.1215 2.94538 14.029L4.18938 13.113C4.36422 12.9848 4.50642 12.8173 4.60443 12.6239C4.70244 12.4305 4.75352 12.2168 4.75352 12C4.75352 11.7832 4.70244 11.5695 4.60443 11.3761C4.50642 11.1827 4.36422 11.0152 4.18938 10.887L2.94638 9.973C2.82084 9.88065 2.72719 9.75148 2.67844 9.60345C2.62969 9.45542 2.62827 9.29588 2.67438 9.147C3.1132 7.73253 3.86711 6.43601 4.87938 5.355C4.98549 5.2417 5.12414 5.16412 5.2762 5.13296C5.42827 5.10179 5.58626 5.11858 5.72838 5.181L7.12838 5.796C7.3274 5.88227 7.54388 5.92066 7.76043 5.90809C7.97697 5.89551 8.18755 5.83232 8.37525 5.7236C8.56295 5.61487 8.72253 5.46363 8.84117 5.28204C8.95981 5.10045 9.0342 4.89356 9.05838 4.678L9.22838 3.152C9.24554 2.99635 9.31098 2.84998 9.41554 2.73341C9.52009 2.61684 9.65851 2.53592 9.81138 2.502C10.5294 2.343 11.2614 2.259 12.0134 2.25ZM12.0134 3.75C11.5594 3.75528 11.1065 3.79438 10.6584 3.867L10.5494 4.844C10.4995 5.29356 10.3446 5.7251 10.0972 6.10379C9.84982 6.48248 9.5169 6.79772 9.12529 7.02409C8.73368 7.25045 8.29434 7.3816 7.84272 7.40694C7.39111 7.43229 6.93986 7.35112 6.52538 7.17L5.62738 6.776C5.05537 7.47012 4.60009 8.25268 4.27938 9.093L5.07738 9.68C5.44159 9.94767 5.73772 10.2973 5.94182 10.7006C6.14592 11.1039 6.25227 11.5495 6.25227 12.0015C6.25227 12.4535 6.14592 12.8991 5.94182 13.3024C5.73772 13.7057 5.44159 14.0553 5.07738 14.323L4.27938 14.911C4.59938 15.753 5.05438 16.537 5.62638 17.233L6.53238 16.836C6.94587 16.6555 7.39597 16.5745 7.84645 16.5997C8.29693 16.6249 8.73521 16.7555 9.12599 16.981C9.51678 17.2065 9.84917 17.5206 10.0964 17.898C10.3436 18.2755 10.4988 18.7057 10.5494 19.154L10.6574 20.138C11.5474 20.288 12.4564 20.288 13.3464 20.138L13.4544 19.154C13.5039 18.7047 13.6584 18.2734 13.9054 17.8949C14.1525 17.5165 14.4852 17.2014 14.8766 16.9754C15.268 16.7493 15.7071 16.6185 16.1584 16.5936C16.6097 16.5687 17.0605 16.6504 17.4744 16.832L18.3784 17.228C18.95 16.5334 19.405 15.7506 19.7254 14.91L18.9274 14.322C18.563 14.0545 18.2667 13.7049 18.0624 13.3016C17.8582 12.8983 17.7518 12.4526 17.7518 12.0005C17.7518 11.5484 17.8582 11.1027 18.0624 10.6994C18.2667 10.2961 18.563 9.94654 18.9274 9.679L19.7234 9.092C19.4027 8.25168 18.9474 7.46912 18.3754 6.775L17.4794 7.168C17.0651 7.34935 16.614 7.43075 16.1625 7.40562C15.711 7.38049 15.2718 7.24953 14.8802 7.02333C14.4886 6.79713 14.1557 6.48203 13.9084 6.10345C13.6611 5.72488 13.5062 5.29345 13.4564 4.844L13.3464 3.868C12.9056 3.79594 12.46 3.75683 12.0134 3.751V3.75ZM12.0004 8.25C12.9949 8.25 13.9488 8.64509 14.652 9.34835C15.3553 10.0516 15.7504 11.0054 15.7504 12C15.7504 12.9946 15.3553 13.9484 14.652 14.6517C13.9488 15.3549 12.9949 15.75 12.0004 15.75C11.0058 15.75 10.052 15.3549 9.34873 14.6517C8.64547 13.9484 8.25038 12.9946 8.25038 12C8.25038 11.0054 8.64547 10.0516 9.34873 9.34835C10.052 8.64509 11.0058 8.25 12.0004 8.25ZM12.0004 9.75C11.4036 9.75 10.8313 9.98705 10.4094 10.409C9.98743 10.831 9.75038 11.4033 9.75038 12C9.75038 12.5967 9.98743 13.169 10.4094 13.591C10.8313 14.0129 11.4036 14.25 12.0004 14.25C12.5971 14.25 13.1694 14.0129 13.5914 13.591C14.0133 13.169 14.2504 12.5967 14.2504 12C14.2504 11.4033 14.0133 10.831 13.5914 10.409C13.1694 9.98705 12.5971 9.75 12.0004 9.75Z" fill="black"/>
</svg>
